<svg viewBox="0 0 280 140" xmlns="http://www.w3.org/2000/svg">
  <defs>
    <filter id="glow" x="-20%" y="-20%" width="140%" height="140%">
      <feGaussianBlur stdDeviation="2" result="blur" />
      <feComposite in="SourceGraphic" in2="blur" operator="over" />
    </filter>
    
    <pattern id="grid" width="10" height="10" patternUnits="userSpaceOnUse">
      <path d="M 10 0 L 0 0 0 10" fill="none" stroke="#3B82F6" stroke-width="0.2" stroke-opacity="0.15"/>
    </pattern>
  </defs>

  <rect width="100%" height="100%" fill="#050B14" />
  <rect width="100%" height="100%" fill="url(#grid)" />

  <g id="zone_2" stroke="#3B82F6" stroke-width="1.5" stroke-opacity="0.4" fill="#3B82F6" fill-opacity="0.05">
    <rect x="90" y="45" width="100" height="40" rx="2" />
    <path d="M 90 55 H 190 M 90 75 H 190" stroke-opacity="0.1" />
  </g>

  <g id="zone_1" stroke="#3B82F6" stroke-width="1.5" stroke-opacity="0.4" fill="#3B82F6" fill-opacity="0.05">
    <path d="M 40 65 L 80 40 V 90 L 40 65 Z" />
    <circle cx="55" cy="65" r="3" fill="#00f0ff" fill-opacity="0.3" stroke="none" />
  </g>

  <g id="zone_3" stroke="#3B82F6" stroke-width="1.5" stroke-opacity="0.4" fill="#3B82F6" fill-opacity="0.05">
    <rect x="200" y="50" width="15" height="30" rx="1" />
    <path d="M 215 55 L 235 45 V 85 L 215 75" />
    <line x1="240" y1="50" x2="250" y2="50" stroke-opacity="0.2" />
    <line x1="240" y1="65" x2="260" y2="65" stroke-opacity="0.2" />
    <line x1="240" y1="80" x2="250" y2="80" stroke-opacity="0.2" />
  </g>

  <text x="10" y="15" font-family="monospace" font-size="5" fill="#3B82F6" fill-opacity="0.5">LAT: 16.0583° N // LON: 108.2208° E</text>
  <text x="270" y="15" text-anchor="end" font-family="monospace" font-size="5" fill="#3B82F6" fill-opacity="0.5">STATUS: STANDBY</text>
  <path d="M 10 20 H 270" stroke="#3B82F6" stroke-width="0.5" stroke-opacity="0.2" />
</svg>